<mxfile host="app.diagrams.net" modified="2024-05-31T06:44:42.586Z" agent="Mozilla/5.0 (Windows NT 10.0; Win64; x64) AppleWebKit/537.36 (KHTML, like Gecko) Chrome/109.0.0.0 Safari/537.36 SLBrowser/9.0.3.1311 SLBChan/33" etag="C0aAoX1eXPPpeMibKNtS" version="24.4.10" type="github">
  <diagram name="第 1 页" id="VdLKuIGX98jG5m8m3szj">
    <mxGraphModel dx="1221" dy="620" grid="1" gridSize="10" guides="1" tooltips="1" connect="1" arrows="1" fold="1" page="1" pageScale="1" pageWidth="827" pageHeight="1169" math="0" shadow="0">
      <root>
        <mxCell id="0" />
        <mxCell id="1" parent="0" />
        <mxCell id="BPb8ETnvKyTtdN2TIiUm-1" value="&lt;span style=&quot;white-space: nowrap;&quot;&gt;&lt;font style=&quot;font-size: 24px;&quot;&gt;定时器&lt;/font&gt;&lt;/span&gt;" style="rounded=1;whiteSpace=wrap;html=1;" vertex="1" parent="1">
          <mxGeometry x="80" y="260" width="170" height="70" as="geometry" />
        </mxCell>
        <mxCell id="BPb8ETnvKyTtdN2TIiUm-3" value="&lt;font style=&quot;font-size: 24px;&quot;&gt;后端程序&lt;/font&gt;" style="rounded=1;whiteSpace=wrap;html=1;" vertex="1" parent="1">
          <mxGeometry x="480" y="265" width="120" height="60" as="geometry" />
        </mxCell>
        <mxCell id="BPb8ETnvKyTtdN2TIiUm-4" value="&lt;font style=&quot;font-size: 18px;&quot;&gt;前端界面&lt;/font&gt;" style="rounded=1;whiteSpace=wrap;html=1;" vertex="1" parent="1">
          <mxGeometry x="460" y="500" width="136" height="70" as="geometry" />
        </mxCell>
        <mxCell id="BPb8ETnvKyTtdN2TIiUm-5" value="" style="shape=flexArrow;endArrow=classic;html=1;rounded=0;exitX=1;exitY=0.5;exitDx=0;exitDy=0;entryX=0;entryY=0.5;entryDx=0;entryDy=0;" edge="1" parent="1" source="BPb8ETnvKyTtdN2TIiUm-1" target="BPb8ETnvKyTtdN2TIiUm-3">
          <mxGeometry width="50" height="50" relative="1" as="geometry">
            <mxPoint x="390" y="340" as="sourcePoint" />
            <mxPoint x="440" y="290" as="targetPoint" />
          </mxGeometry>
        </mxCell>
        <mxCell id="BPb8ETnvKyTtdN2TIiUm-6" value="&lt;font style=&quot;font-size: 18px;&quot;&gt;模拟传感器生成数据&lt;/font&gt;" style="text;html=1;align=center;verticalAlign=middle;resizable=0;points=[];autosize=1;strokeColor=none;fillColor=none;" vertex="1" parent="1">
          <mxGeometry x="70" y="220" width="190" height="40" as="geometry" />
        </mxCell>
        <mxCell id="BPb8ETnvKyTtdN2TIiUm-7" value="" style="shape=flexArrow;endArrow=classic;html=1;rounded=0;exitX=0.369;exitY=0.974;exitDx=0;exitDy=0;exitPerimeter=0;" edge="1" parent="1">
          <mxGeometry width="50" height="50" relative="1" as="geometry">
            <mxPoint x="528.4499999999999" y="325.00000000000006" as="sourcePoint" />
            <mxPoint x="531.5545717526942" y="501.56" as="targetPoint" />
          </mxGeometry>
        </mxCell>
        <mxCell id="BPb8ETnvKyTtdN2TIiUm-8" value="&lt;font style=&quot;font-size: 18px;&quot;&gt;存储数据&lt;/font&gt;" style="text;html=1;align=center;verticalAlign=middle;resizable=0;points=[];autosize=1;strokeColor=none;fillColor=none;" vertex="1" parent="1">
          <mxGeometry x="480" y="213" width="100" height="40" as="geometry" />
        </mxCell>
        <mxCell id="BPb8ETnvKyTtdN2TIiUm-9" value="&lt;font style=&quot;font-size: 18px;&quot;&gt;用户&lt;/font&gt;" style="shape=umlActor;verticalLabelPosition=bottom;verticalAlign=top;html=1;outlineConnect=0;" vertex="1" parent="1">
          <mxGeometry x="80" y="490" width="30" height="60" as="geometry" />
        </mxCell>
        <mxCell id="BPb8ETnvKyTtdN2TIiUm-11" value="" style="shape=flexArrow;endArrow=classic;html=1;rounded=0;exitX=0;exitY=0.25;exitDx=0;exitDy=0;" edge="1" parent="1" source="BPb8ETnvKyTtdN2TIiUm-4" target="BPb8ETnvKyTtdN2TIiUm-9">
          <mxGeometry width="50" height="50" relative="1" as="geometry">
            <mxPoint x="390" y="440" as="sourcePoint" />
            <mxPoint x="440" y="390" as="targetPoint" />
          </mxGeometry>
        </mxCell>
        <mxCell id="BPb8ETnvKyTtdN2TIiUm-12" value="&lt;font style=&quot;font-size: 18px;&quot;&gt;UI展示&lt;/font&gt;" style="text;html=1;align=center;verticalAlign=middle;resizable=0;points=[];autosize=1;strokeColor=none;fillColor=none;" vertex="1" parent="1">
          <mxGeometry x="490" y="565" width="80" height="40" as="geometry" />
        </mxCell>
      </root>
    </mxGraphModel>
  </diagram>
</mxfile>
